<svg width="1544" height="56" viewBox="0 0 1544 56" fill="none" xmlns="http://www.w3.org/2000/svg">
<path d="M79.8035 24.9536C79.8035 22.9064 77.8185 20.7347 74.3769 20.7347C70.5105 20.7347 66.2697 23.5652 65.6133 29.2212C64.9509 34.9395 68.5109 37.4663 72.0881 37.4663C75.664 37.4663 77.5465 36.0729 79.4583 34.2051C77.8076 32.1261 75.6786 33.0936 75.276 33.2962C74.8307 33.5194 74.2463 33.8281 73.0592 33.8281C71.6732 33.8281 70.2677 33.201 70.2677 30.6279C79.1276 29.7788 79.8035 27.002 79.8035 24.9536ZM75.4127 25.2964C75.3553 25.9272 75.0966 27.0191 70.6131 27.6194C71.5586 24.2618 73.3618 24.0129 74.195 24.0129C74.9759 24.0129 75.4736 24.618 75.4127 25.2964ZM60.4062 25.8417C60.4062 25.8417 58.5006 31.8175 58.3529 32.3189C58.3017 31.8175 56.9072 21.0837 56.9072 21.0837C53.6619 21.0837 51.9257 23.3895 51.0107 25.8393C51.0107 25.8393 48.6926 31.8321 48.5048 32.3336C48.4938 31.8638 48.1485 25.9016 48.1485 25.9016C47.9521 22.9051 45.2168 21.0909 43 21.0909L45.6658 37.3528C49.0709 37.3418 50.8936 35.0396 51.855 32.5947C51.855 32.5947 53.8937 27.307 53.9779 27.0667C53.9986 27.296 55.4444 37.3528 55.4444 37.3528C58.8519 37.3528 60.6905 35.197 61.68 32.8399L66.4613 21.0909C63.094 21.0909 61.3212 23.3907 60.4062 25.8417ZM92.3187 20.7127C90.2239 20.7127 88.6098 21.851 87.2507 23.5334L87.2531 23.5212L88.461 13.75C85.6719 13.75 83.3929 16.1779 82.9598 19.7794L80.8382 37.2259C82.4474 37.2259 84.1518 36.7586 85.0716 35.5764C85.8952 36.6341 87.1189 37.4772 88.9306 37.4772C93.6338 37.4772 96.867 32.0103 96.867 26.8776C96.867 22.1939 94.5879 20.7127 92.3187 20.7127ZM91.8868 29.0944C91.3988 31.9639 89.8042 33.8988 88.2596 33.8988C86.7029 33.8988 86.0453 33.2108 86.0453 33.2108C86.3356 30.7024 86.5284 29.1639 87.0957 27.839C87.6618 26.514 89.0002 24.3997 90.4007 24.3997C91.7623 24.3997 92.3748 26.2261 91.8868 29.0944ZM108.657 21.0922H105.365L105.38 20.9201C105.605 18.7704 106.12 17.6419 107.786 17.4687C108.925 17.3516 109.439 16.7598 109.559 16.1205C109.653 15.6191 109.971 13.8464 109.971 13.8464C103.366 13.8086 101.296 16.6598 100.767 20.9934L100.755 21.0909L100.691 21.0934C99.6181 21.0934 98.4408 22.3074 98.2346 23.8494L98.1627 24.4167H100.359L98.5152 39.6782L97.9565 42.4208L98.1833 42.4281C101.266 42.311 103.25 39.8795 103.688 36.3389L105.128 24.4167H106.16C107.17 24.4167 108.357 23.4042 108.577 21.7119L108.657 21.0922ZM125.745 20.8092C121.951 20.8092 118.375 23.6018 117.275 27.9951C116.177 32.3873 117.847 37.5736 123.423 37.5736C129.002 37.5736 132.207 32.1676 132.207 27.6792C132.207 23.1882 129.171 20.8092 125.745 20.8092ZM127.283 28.9638C127.087 30.9561 126.209 33.966 123.808 33.966C121.397 33.966 121.739 30.434 121.973 28.7577C122.223 26.9605 123.233 24.4167 125.382 24.4167C127.323 24.4167 127.505 26.714 127.283 28.9638ZM150.944 25.8417C150.944 25.8417 149.038 31.8175 148.892 32.3189C148.839 31.8175 147.445 21.0837 147.445 21.0837C144.2 21.0837 142.464 23.3895 141.548 25.8393C141.548 25.8393 139.232 31.8321 139.043 32.3336C139.032 31.8638 138.687 25.9016 138.687 25.9016C138.491 22.9051 135.754 21.0909 133.539 21.0909L136.203 37.3528C139.608 37.3418 141.432 35.0396 142.394 32.5947C142.394 32.5947 144.432 27.307 144.516 27.0667C144.537 27.296 145.982 37.3528 145.982 37.3528C149.39 37.3528 151.228 35.197 152.217 32.8399L157 21.0909C153.632 21.0909 151.859 23.3907 150.944 25.8417ZM111.756 13.8464L108.992 36.1437L108.984 36.1401L108.423 38.8974L108.649 38.9046C111.626 38.868 113.738 36.256 114.135 32.9618L115.732 20.1637C116.216 16.2657 113.893 13.8464 111.756 13.8464Z" fill="#CAFB42"/>
<path d="M303.615 37.0475H307.774V29.9185H309.582L313.999 37.0475H318.441L313.559 29.1953C315.729 28.5495 317.356 27.0772 317.356 24.2876V24.1842C317.356 20.3615 314.593 18.5792 310.227 18.5792H303.615V37.0475ZM307.774 27.0772V21.7821H310.124C312.139 21.7821 313.275 22.4279 313.275 24.3134V24.4167C313.275 26.199 312.216 27.0772 310.124 27.0772H307.774Z" fill="#CAFB42"/>
<path d="M325.579 37.3316C329.273 37.3316 331.598 35.7044 332.037 32.7855H328.498C328.266 33.9221 327.413 34.6712 325.683 34.6712C323.642 34.6712 322.428 33.3797 322.325 31.1325H332.063V30.0993C332.063 25.269 328.963 23.2285 325.476 23.2285C321.55 23.2285 318.528 25.9923 318.528 30.2542V30.4608C318.528 34.7745 321.498 37.3316 325.579 37.3316ZM322.376 28.8336C322.66 26.9222 323.797 25.8115 325.476 25.8115C327.258 25.8115 328.291 26.793 328.421 28.8336H322.376Z" fill="#CAFB42"/>
<path d="M333.843 37.0475H337.562V17.4168H333.843V37.0475Z" fill="#CAFB42"/>
<path d="M344.698 37.3316C346.92 37.3316 348.288 36.2984 348.986 34.9295V37.0475H352.705V23.5385H348.986V31.4682C348.986 33.4572 347.746 34.4387 346.171 34.4387C344.569 34.4387 343.82 33.5604 343.82 31.7265V23.5385H340.101V32.2431C340.101 35.7818 342.064 37.3316 344.698 37.3316Z" fill="#CAFB42"/>
<path d="M355.245 37.0475H358.99V29.0661C358.99 27.2322 360.152 26.3022 361.599 26.3022C362.917 26.3022 363.717 27.0771 363.717 28.8078V37.0475H367.437V29.0661C367.437 27.2322 368.599 26.3022 370.045 26.3022C371.388 26.3022 372.164 27.0771 372.164 28.8078V37.0475H375.883V28.3945C375.883 24.8041 373.946 23.2285 371.44 23.2285C369.735 23.2285 367.979 23.9517 366.894 25.579C366.249 23.9776 364.905 23.2285 363.123 23.2285C361.108 23.2285 359.662 24.3392 358.99 25.6048V23.5384H355.245V37.0475Z" fill="#CAFB42"/>
<path d="M384.532 37.3316C388.226 37.3316 390.551 35.7044 390.989 32.7855H387.451C387.218 33.9221 386.366 34.6712 384.635 34.6712C382.594 34.6712 381.381 33.3797 381.278 31.1325H391.015V30.0993C391.015 25.269 387.915 23.2285 384.428 23.2285C380.502 23.2285 377.48 25.9923 377.48 30.2542V30.4608C377.48 34.7745 380.451 37.3316 384.532 37.3316ZM381.329 28.8336C381.613 26.9222 382.75 25.8115 384.428 25.8115C386.211 25.8115 387.244 26.793 387.374 28.8336H381.329Z" fill="#CAFB42"/>
<path fill-rule="evenodd" clip-rule="evenodd" d="M289.303 19.684L289.052 19.2356C288.728 18.6932 288.271 18.2425 287.725 17.9261L275.689 10.9843C275.143 10.6682 274.525 10.5011 273.895 10.5H273.375C272.745 10.5011 272.126 10.6682 271.581 10.9843L259.545 17.9441C259.001 18.2584 258.55 18.7099 258.235 19.2535L257.984 19.7019C257.668 20.2469 257.501 20.8656 257.5 21.4956V35.3972C257.501 36.0272 257.668 36.6459 257.984 37.1909L258.235 37.6393C258.558 38.1766 259.008 38.6263 259.545 38.9488L271.599 45.8905C272.141 46.2132 272.762 46.3808 273.393 46.3748H273.895C274.525 46.3737 275.143 46.2067 275.689 45.8905L287.725 38.9309C288.273 38.6236 288.727 38.1704 289.034 37.6214L289.303 37.173C289.615 36.6264 289.782 36.0087 289.787 35.3792V21.4777C289.786 20.8477 289.619 20.229 289.303 19.684ZM273.375 14.0874H273.895L284.406 20.1503L273.644 26.3566L262.881 20.1503L273.375 14.0874ZM275.437 41.8906L285.931 35.8277L286.2 35.3793V23.2536L275.437 29.4779V41.8906Z" fill="#CAFB42"/>
<path d="M527.804 24.9536C527.804 22.9064 525.819 20.7347 522.377 20.7347C518.511 20.7347 514.27 23.5652 513.613 29.2212C512.951 34.9395 516.511 37.4663 520.088 37.4663C523.664 37.4663 525.547 36.0729 527.458 34.2051C525.808 32.1261 523.679 33.0936 523.276 33.2962C522.831 33.5194 522.246 33.8281 521.059 33.8281C519.673 33.8281 518.268 33.201 518.268 30.6279C527.128 29.7788 527.804 27.002 527.804 24.9536ZM523.413 25.2964C523.355 25.9272 523.097 27.0191 518.613 27.6194C519.559 24.2618 521.362 24.0129 522.195 24.0129C522.976 24.0129 523.474 24.618 523.413 25.2964ZM508.406 25.8417C508.406 25.8417 506.501 31.8175 506.353 32.3189C506.302 31.8175 504.907 21.0837 504.907 21.0837C501.662 21.0837 499.926 23.3895 499.011 25.8393C499.011 25.8393 496.693 31.8321 496.505 32.3336C496.494 31.8638 496.149 25.9016 496.149 25.9016C495.952 22.9051 493.217 21.0909 491 21.0909L493.666 37.3528C497.071 37.3418 498.894 35.0396 499.855 32.5947C499.855 32.5947 501.894 27.307 501.978 27.0667C501.999 27.296 503.444 37.3528 503.444 37.3528C506.852 37.3528 508.69 35.197 509.68 32.8399L514.461 21.0909C511.094 21.0909 509.321 23.3907 508.406 25.8417ZM540.319 20.7127C538.224 20.7127 536.61 21.851 535.251 23.5334L535.253 23.5212L536.461 13.75C533.672 13.75 531.393 16.1779 530.96 19.7794L528.838 37.2259C530.447 37.2259 532.152 36.7586 533.072 35.5764C533.895 36.6341 535.119 37.4772 536.931 37.4772C541.634 37.4772 544.867 32.0103 544.867 26.8776C544.867 22.1939 542.588 20.7127 540.319 20.7127ZM539.887 29.0944C539.399 31.9639 537.804 33.8988 536.26 33.8988C534.703 33.8988 534.045 33.2108 534.045 33.2108C534.336 30.7024 534.528 29.1639 535.096 27.839C535.662 26.514 537 24.3997 538.401 24.3997C539.762 24.3997 540.375 26.2261 539.887 29.0944ZM556.657 21.0922H553.365L553.38 20.9201C553.605 18.7704 554.12 17.6419 555.786 17.4687C556.925 17.3516 557.439 16.7598 557.559 16.1205C557.653 15.6191 557.971 13.8464 557.971 13.8464C551.366 13.8086 549.296 16.6598 548.767 20.9934L548.755 21.0909L548.691 21.0934C547.618 21.0934 546.441 22.3074 546.235 23.8494L546.163 24.4167H548.359L546.515 39.6782L545.956 42.4208L546.183 42.4281C549.266 42.311 551.25 39.8795 551.688 36.3389L553.128 24.4167H554.16C555.17 24.4167 556.357 23.4042 556.577 21.7119L556.657 21.0922ZM573.745 20.8092C569.951 20.8092 566.375 23.6018 565.275 27.9951C564.177 32.3873 565.847 37.5736 571.423 37.5736C577.002 37.5736 580.207 32.1676 580.207 27.6792C580.207 23.1882 577.171 20.8092 573.745 20.8092ZM575.283 28.9638C575.087 30.9561 574.209 33.966 571.808 33.966C569.397 33.966 569.739 30.434 569.973 28.7577C570.223 26.9605 571.233 24.4167 573.382 24.4167C575.323 24.4167 575.505 26.714 575.283 28.9638ZM598.944 25.8417C598.944 25.8417 597.038 31.8175 596.892 32.3189C596.839 31.8175 595.445 21.0837 595.445 21.0837C592.2 21.0837 590.464 23.3895 589.548 25.8393C589.548 25.8393 587.232 31.8321 587.043 32.3336C587.032 31.8638 586.687 25.9016 586.687 25.9016C586.491 22.9051 583.754 21.0909 581.539 21.0909L584.203 37.3528C587.608 37.3418 589.432 35.0396 590.394 32.5947C590.394 32.5947 592.432 27.307 592.516 27.0667C592.537 27.296 593.982 37.3528 593.982 37.3528C597.39 37.3528 599.228 35.197 600.217 32.8399L605 21.0909C601.632 21.0909 599.859 23.3907 598.944 25.8417ZM559.756 13.8464L556.992 36.1437L556.984 36.1401L556.423 38.8974L556.649 38.9046C559.626 38.868 561.738 36.256 562.135 32.9618L563.732 20.1637C564.216 16.2657 561.893 13.8464 559.756 13.8464Z" fill="#CAFB42"/>
<path d="M751.615 37.0475H755.774V29.9185H757.582L761.999 37.0475H766.441L761.559 29.1953C763.729 28.5495 765.356 27.0772 765.356 24.2876V24.1842C765.356 20.3615 762.593 18.5792 758.227 18.5792H751.615V37.0475ZM755.774 27.0772V21.7821H758.124C760.139 21.7821 761.275 22.4279 761.275 24.3134V24.4167C761.275 26.199 760.216 27.0772 758.124 27.0772H755.774Z" fill="#CAFB42"/>
<path d="M773.579 37.3316C777.273 37.3316 779.598 35.7044 780.037 32.7855H776.498C776.266 33.9221 775.413 34.6712 773.683 34.6712C771.642 34.6712 770.428 33.3797 770.325 31.1325H780.063V30.0993C780.063 25.269 776.963 23.2285 773.476 23.2285C769.55 23.2285 766.528 25.9923 766.528 30.2542V30.4608C766.528 34.7745 769.498 37.3316 773.579 37.3316ZM770.376 28.8336C770.66 26.9222 771.797 25.8115 773.476 25.8115C775.258 25.8115 776.291 26.793 776.421 28.8336H770.376Z" fill="#CAFB42"/>
<path d="M781.843 37.0475H785.562V17.4168H781.843V37.0475Z" fill="#CAFB42"/>
<path d="M792.698 37.3316C794.92 37.3316 796.288 36.2984 796.986 34.9295V37.0475H800.705V23.5385H796.986V31.4682C796.986 33.4572 795.746 34.4387 794.171 34.4387C792.569 34.4387 791.82 33.5604 791.82 31.7265V23.5385H788.101V32.2431C788.101 35.7818 790.064 37.3316 792.698 37.3316Z" fill="#CAFB42"/>
<path d="M803.245 37.0475H806.99V29.0661C806.99 27.2322 808.152 26.3022 809.599 26.3022C810.917 26.3022 811.717 27.0771 811.717 28.8078V37.0475H815.437V29.0661C815.437 27.2322 816.599 26.3022 818.045 26.3022C819.388 26.3022 820.164 27.0771 820.164 28.8078V37.0475H823.883V28.3945C823.883 24.8041 821.946 23.2285 819.44 23.2285C817.735 23.2285 815.979 23.9517 814.894 25.579C814.249 23.9776 812.905 23.2285 811.123 23.2285C809.108 23.2285 807.662 24.3392 806.99 25.6048V23.5384H803.245V37.0475Z" fill="#CAFB42"/>
<path d="M832.532 37.3316C836.226 37.3316 838.551 35.7044 838.989 32.7855H835.451C835.218 33.9221 834.366 34.6712 832.635 34.6712C830.594 34.6712 829.381 33.3797 829.277 31.1325H839.015V30.0993C839.015 25.269 835.915 23.2285 832.428 23.2285C828.502 23.2285 825.48 25.9923 825.48 30.2542V30.4608C825.48 34.7745 828.451 37.3316 832.532 37.3316ZM829.329 28.8336C829.613 26.9222 830.75 25.8115 832.428 25.8115C834.211 25.8115 835.244 26.793 835.374 28.8336H829.329Z" fill="#CAFB42"/>
<path fill-rule="evenodd" clip-rule="evenodd" d="M737.303 19.684L737.052 19.2356C736.728 18.6932 736.271 18.2425 735.725 17.9261L723.689 10.9843C723.143 10.6682 722.525 10.5011 721.895 10.5H721.375C720.745 10.5011 720.126 10.6682 719.581 10.9843L707.545 17.9441C707.001 18.2584 706.55 18.7099 706.235 19.2535L705.984 19.7019C705.668 20.2469 705.501 20.8656 705.5 21.4956V35.3972C705.501 36.0272 705.668 36.6459 705.984 37.1909L706.235 37.6393C706.558 38.1766 707.008 38.6263 707.545 38.9488L719.599 45.8905C720.141 46.2132 720.762 46.3808 721.393 46.3748H721.895C722.525 46.3737 723.143 46.2067 723.689 45.8905L735.725 38.9309C736.273 38.6236 736.727 38.1704 737.034 37.6214L737.303 37.173C737.615 36.6264 737.782 36.0087 737.787 35.3792V21.4777C737.786 20.8477 737.619 20.229 737.303 19.684ZM721.375 14.0874H721.895L732.406 20.1503L721.644 26.3566L710.881 20.1503L721.375 14.0874ZM723.437 41.8906L733.931 35.8277L734.2 35.3793V23.2536L723.437 29.4779V41.8906Z" fill="#CAFB42"/>
<path d="M975.804 24.9536C975.804 22.9064 973.819 20.7347 970.377 20.7347C966.511 20.7347 962.27 23.5652 961.613 29.2212C960.951 34.9395 964.511 37.4663 968.088 37.4663C971.664 37.4663 973.547 36.0729 975.458 34.2051C973.808 32.1261 971.679 33.0936 971.276 33.2962C970.831 33.5194 970.246 33.8281 969.059 33.8281C967.673 33.8281 966.268 33.201 966.268 30.6279C975.128 29.7788 975.804 27.002 975.804 24.9536ZM971.413 25.2964C971.355 25.9272 971.097 27.0191 966.613 27.6194C967.559 24.2618 969.362 24.0129 970.195 24.0129C970.976 24.0129 971.474 24.618 971.413 25.2964ZM956.406 25.8417C956.406 25.8417 954.501 31.8175 954.353 32.3189C954.302 31.8175 952.907 21.0837 952.907 21.0837C949.662 21.0837 947.926 23.3895 947.011 25.8393C947.011 25.8393 944.693 31.8321 944.505 32.3336C944.494 31.8638 944.149 25.9016 944.149 25.9016C943.952 22.9051 941.217 21.0909 939 21.0909L941.666 37.3528C945.071 37.3418 946.894 35.0396 947.855 32.5947C947.855 32.5947 949.894 27.307 949.978 27.0667C949.999 27.296 951.444 37.3528 951.444 37.3528C954.852 37.3528 956.69 35.197 957.68 32.8399L962.461 21.0909C959.094 21.0909 957.321 23.3907 956.406 25.8417ZM988.319 20.7127C986.224 20.7127 984.61 21.851 983.251 23.5334L983.253 23.5212L984.461 13.75C981.672 13.75 979.393 16.1779 978.96 19.7794L976.838 37.2259C978.447 37.2259 980.152 36.7586 981.072 35.5764C981.895 36.6341 983.119 37.4772 984.931 37.4772C989.634 37.4772 992.867 32.0103 992.867 26.8776C992.867 22.1939 990.588 20.7127 988.319 20.7127ZM987.887 29.0944C987.399 31.9639 985.804 33.8988 984.26 33.8988C982.703 33.8988 982.045 33.2108 982.045 33.2108C982.336 30.7024 982.528 29.1639 983.096 27.839C983.662 26.514 985 24.3997 986.401 24.3997C987.762 24.3997 988.375 26.2261 987.887 29.0944ZM1004.66 21.0922H1001.36L1001.38 20.9201C1001.6 18.7704 1002.12 17.6419 1003.79 17.4687C1004.92 17.3516 1005.44 16.7598 1005.56 16.1205C1005.65 15.6191 1005.97 13.8464 1005.97 13.8464C999.366 13.8086 997.296 16.6598 996.767 20.9934L996.755 21.0909L996.691 21.0934C995.618 21.0934 994.441 22.3074 994.235 23.8494L994.163 24.4167H996.359L994.515 39.6782L993.956 42.4208L994.183 42.4281C997.266 42.311 999.25 39.8795 999.688 36.3389L1001.13 24.4167H1002.16C1003.17 24.4167 1004.36 23.4042 1004.58 21.7119L1004.66 21.0922ZM1021.75 20.8092C1017.95 20.8092 1014.37 23.6018 1013.28 27.9951C1012.18 32.3873 1013.85 37.5736 1019.42 37.5736C1025 37.5736 1028.21 32.1676 1028.21 27.6792C1028.21 23.1882 1025.17 20.8092 1021.75 20.8092ZM1023.28 28.9638C1023.09 30.9561 1022.21 33.966 1019.81 33.966C1017.4 33.966 1017.74 30.434 1017.97 28.7577C1018.22 26.9605 1019.23 24.4167 1021.38 24.4167C1023.32 24.4167 1023.51 26.714 1023.28 28.9638ZM1046.94 25.8417C1046.94 25.8417 1045.04 31.8175 1044.89 32.3189C1044.84 31.8175 1043.44 21.0837 1043.44 21.0837C1040.2 21.0837 1038.46 23.3895 1037.55 25.8393C1037.55 25.8393 1035.23 31.8321 1035.04 32.3336C1035.03 31.8638 1034.69 25.9016 1034.69 25.9016C1034.49 22.9051 1031.75 21.0909 1029.54 21.0909L1032.2 37.3528C1035.61 37.3418 1037.43 35.0396 1038.39 32.5947C1038.39 32.5947 1040.43 27.307 1040.52 27.0667C1040.54 27.296 1041.98 37.3528 1041.98 37.3528C1045.39 37.3528 1047.23 35.197 1048.22 32.8399L1053 21.0909C1049.63 21.0909 1047.86 23.3907 1046.94 25.8417ZM1007.76 13.8464L1004.99 36.1437L1004.98 36.1401L1004.42 38.8974L1004.65 38.9046C1007.63 38.868 1009.74 36.256 1010.14 32.9618L1011.73 20.1637C1012.22 16.2657 1009.89 13.8464 1007.76 13.8464Z" fill="#CAFB42"/>
<path d="M1199.61 37.0475H1203.77V29.9185H1205.58L1210 37.0475H1214.44L1209.56 29.1953C1211.73 28.5495 1213.36 27.0772 1213.36 24.2876V24.1842C1213.36 20.3615 1210.59 18.5792 1206.23 18.5792H1199.61V37.0475ZM1203.77 27.0772V21.7821H1206.12C1208.14 21.7821 1209.28 22.4279 1209.28 24.3134V24.4167C1209.28 26.199 1208.22 27.0772 1206.12 27.0772H1203.77Z" fill="#CAFB42"/>
<path d="M1221.58 37.3316C1225.27 37.3316 1227.6 35.7044 1228.04 32.7855H1224.5C1224.27 33.9221 1223.41 34.6712 1221.68 34.6712C1219.64 34.6712 1218.43 33.3797 1218.32 31.1325H1228.06V30.0993C1228.06 25.269 1224.96 23.2285 1221.48 23.2285C1217.55 23.2285 1214.53 25.9923 1214.53 30.2542V30.4608C1214.53 34.7745 1217.5 37.3316 1221.58 37.3316ZM1218.38 28.8336C1218.66 26.9222 1219.8 25.8115 1221.48 25.8115C1223.26 25.8115 1224.29 26.793 1224.42 28.8336H1218.38Z" fill="#CAFB42"/>
<path d="M1229.84 37.0475H1233.56V17.4168H1229.84V37.0475Z" fill="#CAFB42"/>
<path d="M1240.7 37.3316C1242.92 37.3316 1244.29 36.2984 1244.99 34.9295V37.0475H1248.71V23.5385H1244.99V31.4682C1244.99 33.4572 1243.75 34.4387 1242.17 34.4387C1240.57 34.4387 1239.82 33.5604 1239.82 31.7265V23.5385H1236.1V32.2431C1236.1 35.7818 1238.06 37.3316 1240.7 37.3316Z" fill="#CAFB42"/>
<path d="M1251.24 37.0475H1254.99V29.0661C1254.99 27.2322 1256.15 26.3022 1257.6 26.3022C1258.92 26.3022 1259.72 27.0771 1259.72 28.8078V37.0475H1263.44V29.0661C1263.44 27.2322 1264.6 26.3022 1266.05 26.3022C1267.39 26.3022 1268.16 27.0771 1268.16 28.8078V37.0475H1271.88V28.3945C1271.88 24.8041 1269.95 23.2285 1267.44 23.2285C1265.74 23.2285 1263.98 23.9517 1262.89 25.579C1262.25 23.9776 1260.91 23.2285 1259.12 23.2285C1257.11 23.2285 1255.66 24.3392 1254.99 25.6048V23.5384H1251.24V37.0475Z" fill="#CAFB42"/>
<path d="M1280.53 37.3316C1284.23 37.3316 1286.55 35.7044 1286.99 32.7855H1283.45C1283.22 33.9221 1282.37 34.6712 1280.63 34.6712C1278.59 34.6712 1277.38 33.3797 1277.28 31.1325H1287.02V30.0993C1287.02 25.269 1283.92 23.2285 1280.43 23.2285C1276.5 23.2285 1273.48 25.9923 1273.48 30.2542V30.4608C1273.48 34.7745 1276.45 37.3316 1280.53 37.3316ZM1277.33 28.8336C1277.61 26.9222 1278.75 25.8115 1280.43 25.8115C1282.21 25.8115 1283.24 26.793 1283.37 28.8336H1277.33Z" fill="#CAFB42"/>
<path fill-rule="evenodd" clip-rule="evenodd" d="M1185.3 19.684L1185.05 19.2356C1184.73 18.6932 1184.27 18.2425 1183.72 17.9261L1171.69 10.9843C1171.14 10.6682 1170.52 10.5011 1169.89 10.5H1169.37C1168.74 10.5011 1168.13 10.6682 1167.58 10.9843L1155.54 17.9441C1155 18.2584 1154.55 18.7099 1154.24 19.2535L1153.98 19.7019C1153.67 20.2469 1153.5 20.8656 1153.5 21.4956V35.3972C1153.5 36.0272 1153.67 36.6459 1153.98 37.1909L1154.24 37.6393C1154.56 38.1766 1155.01 38.6263 1155.54 38.9488L1167.6 45.8905C1168.14 46.2132 1168.76 46.3808 1169.39 46.3748H1169.89C1170.52 46.3737 1171.14 46.2067 1171.69 45.8905L1183.72 38.9309C1184.27 38.6236 1184.73 38.1704 1185.03 37.6214L1185.3 37.173C1185.62 36.6264 1185.78 36.0087 1185.79 35.3792V21.4777C1185.79 20.8477 1185.62 20.229 1185.3 19.684ZM1169.37 14.0874H1169.89L1180.41 20.1503L1169.64 26.3566L1158.88 20.1503L1169.37 14.0874ZM1171.44 41.8906L1181.93 35.8277L1182.2 35.3793V23.2536L1171.44 29.4779V41.8906Z" fill="#CAFB42"/>
<path d="M1423.8 24.9536C1423.8 22.9064 1421.82 20.7347 1418.38 20.7347C1414.51 20.7347 1410.27 23.5652 1409.61 29.2212C1408.95 34.9395 1412.51 37.4663 1416.09 37.4663C1419.66 37.4663 1421.55 36.0729 1423.46 34.2051C1421.81 32.1261 1419.68 33.0936 1419.28 33.2962C1418.83 33.5194 1418.25 33.8281 1417.06 33.8281C1415.67 33.8281 1414.27 33.201 1414.27 30.6279C1423.13 29.7788 1423.8 27.002 1423.8 24.9536ZM1419.41 25.2964C1419.36 25.9272 1419.1 27.0191 1414.61 27.6194C1415.56 24.2618 1417.36 24.0129 1418.2 24.0129C1418.98 24.0129 1419.47 24.618 1419.41 25.2964ZM1404.41 25.8417C1404.41 25.8417 1402.5 31.8175 1402.35 32.3189C1402.3 31.8175 1400.91 21.0837 1400.91 21.0837C1397.66 21.0837 1395.93 23.3895 1395.01 25.8393C1395.01 25.8393 1392.69 31.8321 1392.5 32.3336C1392.49 31.8638 1392.15 25.9016 1392.15 25.9016C1391.95 22.9051 1389.22 21.0909 1387 21.0909L1389.67 37.3528C1393.07 37.3418 1394.89 35.0396 1395.86 32.5947C1395.86 32.5947 1397.89 27.307 1397.98 27.0667C1398 27.296 1399.44 37.3528 1399.44 37.3528C1402.85 37.3528 1404.69 35.197 1405.68 32.8399L1410.46 21.0909C1407.09 21.0909 1405.32 23.3907 1404.41 25.8417ZM1436.32 20.7127C1434.22 20.7127 1432.61 21.851 1431.25 23.5334L1431.25 23.5212L1432.46 13.75C1429.67 13.75 1427.39 16.1779 1426.96 19.7794L1424.84 37.2259C1426.45 37.2259 1428.15 36.7586 1429.07 35.5764C1429.9 36.6341 1431.12 37.4772 1432.93 37.4772C1437.63 37.4772 1440.87 32.0103 1440.87 26.8776C1440.87 22.1939 1438.59 20.7127 1436.32 20.7127ZM1435.89 29.0944C1435.4 31.9639 1433.8 33.8988 1432.26 33.8988C1430.7 33.8988 1430.05 33.2108 1430.05 33.2108C1430.34 30.7024 1430.53 29.1639 1431.1 27.839C1431.66 26.514 1433 24.3997 1434.4 24.3997C1435.76 24.3997 1436.37 26.2261 1435.89 29.0944ZM1452.66 21.0922H1449.36L1449.38 20.9201C1449.6 18.7704 1450.12 17.6419 1451.79 17.4687C1452.92 17.3516 1453.44 16.7598 1453.56 16.1205C1453.65 15.6191 1453.97 13.8464 1453.97 13.8464C1447.37 13.8086 1445.3 16.6598 1444.77 20.9934L1444.76 21.0909L1444.69 21.0934C1443.62 21.0934 1442.44 22.3074 1442.23 23.8494L1442.16 24.4167H1444.36L1442.52 39.6782L1441.96 42.4208L1442.18 42.4281C1445.27 42.311 1447.25 39.8795 1447.69 36.3389L1449.13 24.4167H1450.16C1451.17 24.4167 1452.36 23.4042 1452.58 21.7119L1452.66 21.0922ZM1469.75 20.8092C1465.95 20.8092 1462.37 23.6018 1461.28 27.9951C1460.18 32.3873 1461.85 37.5736 1467.42 37.5736C1473 37.5736 1476.21 32.1676 1476.21 27.6792C1476.21 23.1882 1473.17 20.8092 1469.75 20.8092ZM1471.28 28.9638C1471.09 30.9561 1470.21 33.966 1467.81 33.966C1465.4 33.966 1465.74 30.434 1465.97 28.7577C1466.22 26.9605 1467.23 24.4167 1469.38 24.4167C1471.32 24.4167 1471.51 26.714 1471.28 28.9638ZM1494.94 25.8417C1494.94 25.8417 1493.04 31.8175 1492.89 32.3189C1492.84 31.8175 1491.44 21.0837 1491.44 21.0837C1488.2 21.0837 1486.46 23.3895 1485.55 25.8393C1485.55 25.8393 1483.23 31.8321 1483.04 32.3336C1483.03 31.8638 1482.69 25.9016 1482.69 25.9016C1482.49 22.9051 1479.75 21.0909 1477.54 21.0909L1480.2 37.3528C1483.61 37.3418 1485.43 35.0396 1486.39 32.5947C1486.39 32.5947 1488.43 27.307 1488.52 27.0667C1488.54 27.296 1489.98 37.3528 1489.98 37.3528C1493.39 37.3528 1495.23 35.197 1496.22 32.8399L1501 21.0909C1497.63 21.0909 1495.86 23.3907 1494.94 25.8417ZM1455.76 13.8464L1452.99 36.1437L1452.98 36.1401L1452.42 38.8974L1452.65 38.9046C1455.63 38.868 1457.74 36.256 1458.14 32.9618L1459.73 20.1637C1460.22 16.2657 1457.89 13.8464 1455.76 13.8464Z" fill="#CAFB42"/>
</svg>
